# xmcd
#
# Track frame offsets: 
#        150
#        9800
#        19840
#        31342
#        40745
#        51487
#        64900
#        74722
#        83102
#        92180
#        101417
#        112900
#        122120
#        133102
#        143402
#        153072
#        164652
#        172360
#        182142
#        186970
#        197700
#        203355
#        213137
#        221777
#        231815
#        244267
#        256830
#        266542
#        278310
#
# Disc length: 3852 seconds
#
# Revision: 2
# Processed by: cddbd v1.5.2PL0 Copyright (c) Steve Scherf et al.
# Submitted via: ExactAudioCopy v0.95b4
#
DISCID=9c0f0a1d
DTITLE=Lew Williams - Cat Talk
DYEAR=1900
DGENRE=
TTITLE0=Bop Bop Ba Doo Bop
TTITLE1=Cat Talk
TTITLE2=I Saw You Crying In The Show
TTITLE3=Centipede
TTITLE4=My New Pink Shoes
TTITLE5=I'll Play Your Game
TTITLE6=All Through The Night
TTITLE7=Something I Said
TTITLE8=Gone Ape Man
TTITLE9=Rock N Roll School
TTITLE10=Cat Talk
TTITLE11=Abracadabra
TTITLE12=Teenagers Talking On The Telephone
TTITLE13=Don't Mention My Name
TTITLE14=The Girl I Saw On Bandstand
TTITLE15=I Saw You Crying In The Show
TTITLE16=Between Classes
TTITLE17=I'm The Manager Of The Flying Purple People Eater
TTITLE18=Ba Ba Baby
TTITLE19=Teenage Tears
TTITLE20=I Like The Way
TTITLE21=You're Not My Baby This Year
TTITLE22=Don't Mention My Name
TTITLE23=Something I Said
TTITLE24=Please Don't Tell A Lie About Me
TTITLE25=Just For Tonight
TTITLE26=I've Been Doin' Some Slippin' Too
TTITLE27=What're We Gonna Do!
TTITLE28=I've Cried Over You For The Last Time Last Night
EXTD=
EXTT0=
EXTT1=
EXTT2=
EXTT3=
EXTT4=
EXTT5=
EXTT6=
EXTT7=
EXTT8=
EXTT9=
EXTT10=
EXTT11=
EXTT12=
EXTT13=
EXTT14=
EXTT15=
EXTT16=
EXTT17=
EXTT18=
EXTT19=
EXTT20=
EXTT21=
EXTT22=
EXTT23=
EXTT24=
EXTT25=
EXTT26=
EXTT27=
EXTT28=
PLAYORDER=
